<mxfile host="65bd71144e">
    <diagram id="zKTkslORkfVewyxvrEEt" name="Page-1">
        <mxGraphModel dx="2783" dy="1877" grid="1" gridSize="10" guides="1" tooltips="1" connect="1" arrows="1" fold="1" page="1" pageScale="1" pageWidth="850" pageHeight="1100" math="0" shadow="0">
            <root>
                <mxCell id="0"/>
                <mxCell id="1" parent="0"/>
                <mxCell id="2" value="" style="rounded=0;html=1;jettySize=auto;orthogonalLoop=1;fontSize=11;endArrow=classic;endFill=1;endSize=8;strokeWidth=1;shadow=0;labelBackgroundColor=none;edgeStyle=orthogonalEdgeStyle;strokeColor=#000000;" edge="1" parent="1" source="3" target="6">
                    <mxGeometry relative="1" as="geometry"/>
                </mxCell>
                <mxCell id="3" value="Login" style="rounded=1;whiteSpace=wrap;html=1;fontSize=12;glass=0;strokeWidth=1;shadow=0;arcSize=50;fillColor=#dae8fc;strokeColor=#FFFFFF;" vertex="1" parent="1">
                    <mxGeometry x="90" y="323" width="120" height="40" as="geometry"/>
                </mxCell>
                <mxCell id="4" value="Yes" style="edgeStyle=orthogonalEdgeStyle;rounded=0;html=1;jettySize=auto;orthogonalLoop=1;fontSize=11;endArrow=classic;endFill=1;endSize=8;strokeWidth=1;shadow=0;labelBackgroundColor=none;strokeColor=#000000;" edge="1" parent="1" source="6" target="7">
                    <mxGeometry x="0.1111" y="-15" relative="1" as="geometry">
                        <mxPoint as="offset"/>
                    </mxGeometry>
                </mxCell>
                <mxCell id="5" style="edgeStyle=orthogonalEdgeStyle;rounded=0;orthogonalLoop=1;jettySize=auto;html=1;entryX=0;entryY=0.5;entryDx=0;entryDy=0;strokeColor=#000000;" edge="1" parent="1" source="6" target="46">
                    <mxGeometry relative="1" as="geometry"/>
                </mxCell>
                <mxCell id="6" value="Has there been an&lt;br&gt;error attempts at login?&lt;div id=&quot;SDCloudData&quot; style=&quot;display: none&quot;&gt;&lt;/div&gt;" style="rhombus;whiteSpace=wrap;html=1;shadow=0;fontFamily=Helvetica;fontSize=12;align=center;strokeWidth=1;spacing=6;spacingTop=-4;fillColor=#dae8fc;strokeColor=#FFFFFF;" vertex="1" parent="1">
                    <mxGeometry x="250" y="278" width="150" height="130" as="geometry"/>
                </mxCell>
                <mxCell id="7" value="Display error" style="rounded=1;whiteSpace=wrap;html=1;fontSize=12;glass=0;strokeWidth=1;shadow=0;fillColor=#dae8fc;strokeColor=#FFFFFF;" vertex="1" parent="1">
                    <mxGeometry x="265" y="443" width="120" height="40" as="geometry"/>
                </mxCell>
                <mxCell id="8" value="No" style="rounded=0;html=1;jettySize=auto;orthogonalLoop=1;fontSize=11;endArrow=classic;endFill=1;endSize=8;strokeWidth=1;shadow=0;labelBackgroundColor=none;edgeStyle=orthogonalEdgeStyle;strokeColor=#000000;" edge="1" parent="1" source="10" target="12">
                    <mxGeometry x="-0.3333" y="20" relative="1" as="geometry">
                        <mxPoint as="offset"/>
                    </mxGeometry>
                </mxCell>
                <mxCell id="9" value="Yes" style="edgeStyle=orthogonalEdgeStyle;rounded=0;html=1;jettySize=auto;orthogonalLoop=1;fontSize=11;endArrow=classic;endFill=1;endSize=8;strokeWidth=1;shadow=0;labelBackgroundColor=none;entryX=0;entryY=0.5;entryDx=0;entryDy=0;strokeColor=#000000;" edge="1" parent="1" source="10" target="17">
                    <mxGeometry y="10" relative="1" as="geometry">
                        <mxPoint as="offset"/>
                        <mxPoint x="700" y="343" as="targetPoint"/>
                    </mxGeometry>
                </mxCell>
                <mxCell id="10" value="Does user id exist&lt;div id=&quot;SDCloudData&quot; style=&quot;display: none&quot;&gt;&lt;/div&gt;" style="rhombus;whiteSpace=wrap;html=1;shadow=0;fontFamily=Helvetica;fontSize=12;align=center;strokeWidth=1;spacing=6;spacingTop=-4;fillColor=#dae8fc;strokeColor=#000000;" vertex="1" parent="1">
                    <mxGeometry x="600" y="288" width="120" height="110" as="geometry"/>
                </mxCell>
                <mxCell id="11" style="edgeStyle=orthogonalEdgeStyle;rounded=0;orthogonalLoop=1;jettySize=auto;html=1;entryX=0.5;entryY=1;entryDx=0;entryDy=0;strokeColor=#FFFFFF;exitX=0.5;exitY=1;exitDx=0;exitDy=0;" edge="1" parent="1" source="12" target="3">
                    <mxGeometry relative="1" as="geometry">
                        <Array as="points">
                            <mxPoint x="660" y="558"/>
                            <mxPoint x="150" y="558"/>
                        </Array>
                    </mxGeometry>
                </mxCell>
                <mxCell id="12" value="Display error" style="rounded=1;whiteSpace=wrap;html=1;fontSize=12;glass=0;strokeWidth=1;shadow=0;fillColor=#dae8fc;strokeColor=#FFFFFF;" vertex="1" parent="1">
                    <mxGeometry x="600" y="443" width="120" height="40" as="geometry"/>
                </mxCell>
                <mxCell id="13" style="edgeStyle=orthogonalEdgeStyle;rounded=0;orthogonalLoop=1;jettySize=auto;html=1;entryX=0;entryY=0.5;entryDx=0;entryDy=0;strokeColor=#000000;" edge="1" parent="1" source="14" target="3">
                    <mxGeometry relative="1" as="geometry"/>
                </mxCell>
                <mxCell id="14" value="LOG" style="strokeWidth=2;html=1;shape=mxgraph.flowchart.start_2;whiteSpace=wrap;fillColor=#dae8fc;strokeColor=#FFFFFF;" vertex="1" parent="1">
                    <mxGeometry x="20" y="323" width="40" height="40" as="geometry"/>
                </mxCell>
                <mxCell id="15" value="" style="edgeStyle=orthogonalEdgeStyle;rounded=0;orthogonalLoop=1;jettySize=auto;html=1;entryX=0.5;entryY=0;entryDx=0;entryDy=0;strokeColor=#000000;" edge="1" parent="1" source="17" target="20">
                    <mxGeometry relative="1" as="geometry">
                        <mxPoint x="770" y="433" as="targetPoint"/>
                    </mxGeometry>
                </mxCell>
                <mxCell id="16" value="&#10;&#10;&lt;span style=&quot;color: rgb(0, 0, 0); font-family: helvetica; font-size: 11px; font-style: normal; font-weight: 400; letter-spacing: normal; text-align: center; text-indent: 0px; text-transform: none; word-spacing: 0px; background-color: rgb(248, 249, 250); display: inline; float: none;&quot;&gt;Yes&lt;/span&gt;&#10;&#10;" style="edgeStyle=orthogonalEdgeStyle;rounded=0;orthogonalLoop=1;jettySize=auto;html=1;entryX=0;entryY=0.5;entryDx=0;entryDy=0;strokeColor=#000000;" edge="1" parent="1" source="17" target="22">
                    <mxGeometry x="-0.1429" relative="1" as="geometry">
                        <mxPoint as="offset"/>
                    </mxGeometry>
                </mxCell>
                <mxCell id="17" value="Does password match user id?&lt;div id=&quot;SDCloudData&quot; style=&quot;display: none&quot;&gt;&lt;/div&gt;&lt;div id=&quot;SDCloudData&quot; style=&quot;display: none&quot;&gt;&lt;/div&gt;" style="rhombus;whiteSpace=wrap;html=1;shadow=0;fontFamily=Helvetica;fontSize=12;align=center;strokeWidth=1;spacing=6;spacingTop=-4;fillColor=#dae8fc;strokeColor=#000000;" vertex="1" parent="1">
                    <mxGeometry x="770" y="288" width="120" height="110" as="geometry"/>
                </mxCell>
                <mxCell id="18" style="edgeStyle=orthogonalEdgeStyle;rounded=0;orthogonalLoop=1;jettySize=auto;html=1;exitX=0.5;exitY=1;exitDx=0;exitDy=0;entryX=0.5;entryY=1;entryDx=0;entryDy=0;strokeColor=#FFFFFF;" edge="1" parent="1" source="20" target="3">
                    <mxGeometry relative="1" as="geometry">
                        <Array as="points">
                            <mxPoint x="830" y="578"/>
                            <mxPoint x="150" y="578"/>
                        </Array>
                    </mxGeometry>
                </mxCell>
                <mxCell id="19" value="" style="edgeStyle=orthogonalEdgeStyle;rounded=0;orthogonalLoop=1;jettySize=auto;html=1;strokeColor=#FFFFFF;" edge="1" parent="1" source="20" target="55">
                    <mxGeometry relative="1" as="geometry"/>
                </mxCell>
                <mxCell id="20" value="Display error&lt;div id=&quot;SDCloudData&quot; style=&quot;display: none&quot;&gt;&lt;/div&gt;" style="rounded=1;whiteSpace=wrap;html=1;fontSize=12;glass=0;strokeWidth=1;shadow=0;fillColor=#dae8fc;strokeColor=#000000;" vertex="1" parent="1">
                    <mxGeometry x="770" y="438" width="120" height="40" as="geometry"/>
                </mxCell>
                <mxCell id="21" value="" style="edgeStyle=orthogonalEdgeStyle;rounded=0;orthogonalLoop=1;jettySize=auto;html=1;strokeColor=#000000;" edge="1" parent="1" source="22" target="84">
                    <mxGeometry relative="1" as="geometry"/>
                </mxCell>
                <mxCell id="22" value="Grant access&lt;div id=&quot;SDCloudData&quot; style=&quot;display: none&quot;&gt;&lt;/div&gt;&lt;div id=&quot;SDCloudData&quot; style=&quot;display: none&quot;&gt;&lt;/div&gt;" style="rounded=1;whiteSpace=wrap;html=1;fontSize=12;glass=0;strokeWidth=1;shadow=0;fillColor=#dae8fc;strokeColor=#000000;" vertex="1" parent="1">
                    <mxGeometry x="940" y="323" width="120" height="40" as="geometry"/>
                </mxCell>
                <mxCell id="23" value="&lt;span style=&quot;font-family: &amp;#34;helvetica&amp;#34; ; background-color: rgb(248 , 249 , 250)&quot;&gt;No&lt;/span&gt;" style="edgeStyle=orthogonalEdgeStyle;rounded=0;orthogonalLoop=1;jettySize=auto;html=1;entryX=0.5;entryY=0;entryDx=0;entryDy=0;exitX=0.5;exitY=0;exitDx=0;exitDy=0;strokeColor=#FFFFFF;" edge="1" parent="1">
                    <mxGeometry y="87" relative="1" as="geometry">
                        <mxPoint x="770" y="443" as="sourcePoint"/>
                        <mxPoint x="770" y="443" as="targetPoint"/>
                        <mxPoint x="80" y="-35" as="offset"/>
                    </mxGeometry>
                </mxCell>
                <mxCell id="24" style="edgeStyle=orthogonalEdgeStyle;rounded=0;orthogonalLoop=1;jettySize=auto;html=1;entryX=0;entryY=0.5;entryDx=0;entryDy=0;strokeColor=#000000;" edge="1" parent="1" source="25" target="27">
                    <mxGeometry relative="1" as="geometry"/>
                </mxCell>
                <mxCell id="25" value="REG" style="strokeWidth=2;html=1;shape=mxgraph.flowchart.start_2;whiteSpace=wrap;fillColor=#fff2cc;strokeColor=#FFE599;" vertex="1" parent="1">
                    <mxGeometry x="20" y="64" width="40" height="40" as="geometry"/>
                </mxCell>
                <mxCell id="26" value="" style="edgeStyle=orthogonalEdgeStyle;rounded=0;orthogonalLoop=1;jettySize=auto;html=1;strokeColor=#000000;" edge="1" parent="1" source="27" target="30">
                    <mxGeometry relative="1" as="geometry"/>
                </mxCell>
                <mxCell id="27" value="Register" style="rounded=1;whiteSpace=wrap;html=1;fontSize=12;glass=0;strokeWidth=1;shadow=0;arcSize=50;fillColor=#fff2cc;strokeColor=#000000;" vertex="1" parent="1">
                    <mxGeometry x="90" y="64" width="120" height="40" as="geometry"/>
                </mxCell>
                <mxCell id="28" style="edgeStyle=orthogonalEdgeStyle;rounded=0;orthogonalLoop=1;jettySize=auto;html=1;exitX=0.5;exitY=1;exitDx=0;exitDy=0;strokeColor=#000000;" edge="1" parent="1" source="30" target="31">
                    <mxGeometry relative="1" as="geometry">
                        <Array as="points">
                            <mxPoint x="320" y="174"/>
                            <mxPoint x="320" y="174"/>
                        </Array>
                    </mxGeometry>
                </mxCell>
                <mxCell id="29" value="Yes" style="edgeStyle=orthogonalEdgeStyle;rounded=0;orthogonalLoop=1;jettySize=auto;html=1;strokeColor=#000000;" edge="1" parent="1" source="30" target="34">
                    <mxGeometry relative="1" as="geometry"/>
                </mxCell>
                <mxCell id="30" value="Does user new to&amp;nbsp;&lt;br&gt;the application?" style="rhombus;whiteSpace=wrap;html=1;rounded=1;shadow=0;strokeWidth=1;glass=0;arcSize=0;fillColor=#fff2cc;strokeColor=#000000;" vertex="1" parent="1">
                    <mxGeometry x="250" y="24" width="140" height="120" as="geometry"/>
                </mxCell>
                <mxCell id="31" value="Proceed to login" style="shape=parallelogram;html=1;strokeWidth=1;perimeter=parallelogramPerimeter;whiteSpace=wrap;rounded=1;arcSize=0;size=0.23;fillColor=#fff2cc;strokeColor=#000000;" vertex="1" parent="1">
                    <mxGeometry x="235" y="204" width="170" height="50" as="geometry"/>
                </mxCell>
                <mxCell id="32" value="&lt;span style=&quot;color: rgb(0, 0, 0); font-family: helvetica; font-size: 11px; font-style: normal; font-weight: 400; letter-spacing: normal; text-align: center; text-indent: 0px; text-transform: none; word-spacing: 0px; background-color: rgb(248, 249, 250); display: inline; float: none;&quot;&gt;No&lt;/span&gt;" style="text;whiteSpace=wrap;html=1;strokeColor=none;" vertex="1" parent="1">
                    <mxGeometry x="320" y="154" width="40" height="30" as="geometry"/>
                </mxCell>
                <mxCell id="33" value="" style="edgeStyle=orthogonalEdgeStyle;rounded=0;orthogonalLoop=1;jettySize=auto;html=1;strokeColor=#FFFFFF;" edge="1" parent="1" source="34" target="36">
                    <mxGeometry relative="1" as="geometry"/>
                </mxCell>
                <mxCell id="34" value="Enter email &amp;amp; password&lt;br&gt;Firstname,Lastname&lt;br&gt;Birthday, Gender&lt;br&gt;Address, Institution&lt;br&gt;Occupation&lt;br&gt;ReCaptcha&lt;br&gt;Terms &amp;amp; Condition" style="whiteSpace=wrap;html=1;rounded=1;shadow=0;strokeWidth=1;glass=0;arcSize=0;fillColor=#fff2cc;strokeColor=#000000;" vertex="1" parent="1">
                    <mxGeometry x="460" y="19" width="120" height="130" as="geometry"/>
                </mxCell>
                <mxCell id="35" value="" style="edgeStyle=orthogonalEdgeStyle;rounded=0;orthogonalLoop=1;jettySize=auto;html=1;strokeColor=#000000;" edge="1" parent="1" source="36" target="39">
                    <mxGeometry relative="1" as="geometry"/>
                </mxCell>
                <mxCell id="36" value="Determine user info" style="whiteSpace=wrap;html=1;rounded=1;shadow=0;strokeWidth=1;glass=0;arcSize=0;fillColor=#fff2cc;strokeColor=#000000;" vertex="1" parent="1">
                    <mxGeometry x="620" y="54" width="120" height="60" as="geometry"/>
                </mxCell>
                <mxCell id="37" style="edgeStyle=orthogonalEdgeStyle;rounded=0;orthogonalLoop=1;jettySize=auto;html=1;exitX=1;exitY=0.5;exitDx=0;exitDy=0;entryX=0;entryY=0.5;entryDx=0;entryDy=0;strokeColor=#000000;" edge="1" parent="1" source="39" target="41">
                    <mxGeometry relative="1" as="geometry"/>
                </mxCell>
                <mxCell id="38" style="edgeStyle=orthogonalEdgeStyle;rounded=0;orthogonalLoop=1;jettySize=auto;html=1;entryX=0.451;entryY=1.003;entryDx=0;entryDy=0;entryPerimeter=0;strokeColor=#000000;" edge="1" parent="1" source="39" target="34">
                    <mxGeometry relative="1" as="geometry">
                        <Array as="points">
                            <mxPoint x="845" y="184"/>
                            <mxPoint x="514" y="184"/>
                        </Array>
                    </mxGeometry>
                </mxCell>
                <mxCell id="39" value="Is user data valid?" style="rhombus;whiteSpace=wrap;html=1;rounded=1;shadow=0;strokeWidth=1;glass=0;arcSize=0;fillColor=#fff2cc;strokeColor=#000000;" vertex="1" parent="1">
                    <mxGeometry x="780" y="44" width="130" height="80" as="geometry"/>
                </mxCell>
                <mxCell id="40" style="edgeStyle=orthogonalEdgeStyle;rounded=0;orthogonalLoop=1;jettySize=auto;html=1;entryX=0.5;entryY=0;entryDx=0;entryDy=0;entryPerimeter=0;endArrow=classic;endFill=1;strokeColor=#000000;" edge="1" parent="1" source="41" target="121">
                    <mxGeometry relative="1" as="geometry"/>
                </mxCell>
                <mxCell id="41" value="Display Success&lt;br&gt;alert/Received email&lt;br&gt;verification message&amp;nbsp;" style="shape=parallelogram;html=1;strokeWidth=1;perimeter=parallelogramPerimeter;whiteSpace=wrap;rounded=1;arcSize=0;size=0.23;fillColor=#fff2cc;strokeColor=#000000;" vertex="1" parent="1">
                    <mxGeometry x="940" y="56.5" width="180" height="55" as="geometry"/>
                </mxCell>
                <mxCell id="42" value="&lt;span style=&quot;color: rgb(0 , 0 , 0) ; font-family: &amp;#34;helvetica&amp;#34; ; font-size: 11px ; font-style: normal ; font-weight: 400 ; letter-spacing: normal ; text-align: center ; text-indent: 0px ; text-transform: none ; word-spacing: 0px ; background-color: rgb(248 , 249 , 250) ; display: inline ; float: none&quot;&gt;Yes&lt;/span&gt;" style="text;whiteSpace=wrap;html=1;strokeColor=none;" vertex="1" parent="1">
                    <mxGeometry x="920" y="56.5" width="40" height="30" as="geometry"/>
                </mxCell>
                <mxCell id="43" value="&lt;span style=&quot;color: rgb(0, 0, 0); font-family: helvetica; font-size: 11px; font-style: normal; font-weight: 400; letter-spacing: normal; text-align: center; text-indent: 0px; text-transform: none; word-spacing: 0px; background-color: rgb(248, 249, 250); display: inline; float: none;&quot;&gt;No&lt;/span&gt;" style="text;whiteSpace=wrap;html=1;strokeColor=none;" vertex="1" parent="1">
                    <mxGeometry x="840" y="134" width="40" height="30" as="geometry"/>
                </mxCell>
                <mxCell id="44" style="edgeStyle=orthogonalEdgeStyle;rounded=0;orthogonalLoop=1;jettySize=auto;html=1;entryX=0;entryY=0.5;entryDx=0;entryDy=0;strokeColor=#FFFFFF;" edge="1" parent="1" source="46" target="10">
                    <mxGeometry relative="1" as="geometry"/>
                </mxCell>
                <mxCell id="45" style="edgeStyle=orthogonalEdgeStyle;rounded=0;orthogonalLoop=1;jettySize=auto;html=1;exitX=0.5;exitY=1;exitDx=0;exitDy=0;entryX=0.5;entryY=0;entryDx=0;entryDy=0;strokeColor=#000000;" edge="1" parent="1" source="46" target="50">
                    <mxGeometry relative="1" as="geometry"/>
                </mxCell>
                <mxCell id="46" value="Does user exist&lt;br&gt;in the database?&lt;br&gt;&lt;div id=&quot;SDCloudData&quot; style=&quot;display: none&quot;&gt;&lt;/div&gt;" style="rhombus;whiteSpace=wrap;html=1;shadow=0;fontFamily=Helvetica;fontSize=12;align=center;strokeWidth=1;spacing=6;spacingTop=-4;fillColor=#dae8fc;strokeColor=#FFFFFF;" vertex="1" parent="1">
                    <mxGeometry x="440" y="288" width="120" height="110" as="geometry"/>
                </mxCell>
                <mxCell id="47" value="No" style="text;html=1;align=center;verticalAlign=middle;resizable=0;points=[];autosize=1;strokeColor=#FFFFFF;fillColor=none;" vertex="1" parent="1">
                    <mxGeometry x="395" y="318" width="30" height="20" as="geometry"/>
                </mxCell>
                <mxCell id="48" value="Yes" style="text;html=1;align=center;verticalAlign=middle;resizable=0;points=[];autosize=1;strokeColor=none;fillColor=none;" vertex="1" parent="1">
                    <mxGeometry x="545" y="318" width="40" height="20" as="geometry"/>
                </mxCell>
                <mxCell id="49" style="edgeStyle=orthogonalEdgeStyle;rounded=0;orthogonalLoop=1;jettySize=auto;html=1;exitX=0.5;exitY=1;exitDx=0;exitDy=0;entryX=0.5;entryY=0;entryDx=0;entryDy=0;entryPerimeter=0;strokeColor=#000000;" edge="1" parent="1" source="50" target="52">
                    <mxGeometry relative="1" as="geometry"/>
                </mxCell>
                <mxCell id="50" value="Display error" style="rounded=1;whiteSpace=wrap;html=1;fontSize=12;glass=0;strokeWidth=1;shadow=0;fillColor=#dae8fc;strokeColor=#FFFFFF;" vertex="1" parent="1">
                    <mxGeometry x="440" y="438" width="120" height="40" as="geometry"/>
                </mxCell>
                <mxCell id="51" value="No" style="text;html=1;align=center;verticalAlign=middle;resizable=0;points=[];autosize=1;strokeColor=none;fillColor=none;" vertex="1" parent="1">
                    <mxGeometry x="505" y="403" width="30" height="20" as="geometry"/>
                </mxCell>
                <mxCell id="52" value="REG" style="strokeWidth=2;html=1;shape=mxgraph.flowchart.start_2;whiteSpace=wrap;fillColor=#fff2cc;strokeColor=#FFFFFF;" vertex="1" parent="1">
                    <mxGeometry x="480" y="498" width="40" height="40" as="geometry"/>
                </mxCell>
                <mxCell id="53" value="" style="edgeStyle=orthogonalEdgeStyle;rounded=0;orthogonalLoop=1;jettySize=auto;html=1;strokeColor=#000000;" edge="1" parent="1" source="55" target="57">
                    <mxGeometry relative="1" as="geometry"/>
                </mxCell>
                <mxCell id="54" style="edgeStyle=orthogonalEdgeStyle;rounded=0;orthogonalLoop=1;jettySize=auto;html=1;exitX=1;exitY=0.5;exitDx=0;exitDy=0;entryX=0;entryY=0.5;entryDx=0;entryDy=0;entryPerimeter=0;strokeColor=#000000;" edge="1" parent="1" source="55" target="60">
                    <mxGeometry relative="1" as="geometry"/>
                </mxCell>
                <mxCell id="55" value="Forgot Password" style="rhombus;whiteSpace=wrap;html=1;rounded=1;shadow=0;strokeWidth=1;glass=0;arcSize=0;fillColor=#dae8fc;strokeColor=#000000;" vertex="1" parent="1">
                    <mxGeometry x="915" y="418" width="90" height="80" as="geometry"/>
                </mxCell>
                <mxCell id="56" style="edgeStyle=orthogonalEdgeStyle;rounded=0;orthogonalLoop=1;jettySize=auto;html=1;exitX=0.5;exitY=1;exitDx=0;exitDy=0;entryX=0.5;entryY=0;entryDx=0;entryDy=0;entryPerimeter=0;strokeColor=#000000;" edge="1" parent="1" source="57" target="62">
                    <mxGeometry relative="1" as="geometry"/>
                </mxCell>
                <mxCell id="57" value="Reset Password" style="whiteSpace=wrap;html=1;rounded=1;shadow=0;strokeWidth=1;glass=0;arcSize=0;fillColor=#dae8fc;strokeColor=#000000;" vertex="1" parent="1">
                    <mxGeometry x="900" y="538" width="120" height="60" as="geometry"/>
                </mxCell>
                <mxCell id="58" value="&lt;span style=&quot;color: rgb(0 , 0 , 0) ; font-family: &amp;#34;helvetica&amp;#34; ; font-size: 11px ; font-style: normal ; font-weight: 400 ; letter-spacing: normal ; text-align: center ; text-indent: 0px ; text-transform: none ; word-spacing: 0px ; background-color: rgb(248 , 249 , 250) ; display: inline ; float: none&quot;&gt;Yes&lt;/span&gt;" style="text;whiteSpace=wrap;html=1;strokeColor=#FFFFFF;" vertex="1" parent="1">
                    <mxGeometry x="965" y="498" width="40" height="30" as="geometry"/>
                </mxCell>
                <mxCell id="59" value="LOG" style="strokeWidth=2;html=1;shape=mxgraph.flowchart.start_2;whiteSpace=wrap;fillColor=#dae8fc;strokeColor=#7EA6E0;" vertex="1" parent="1">
                    <mxGeometry x="1120" y="164" width="40" height="40" as="geometry"/>
                </mxCell>
                <mxCell id="60" value="LOG" style="strokeWidth=2;html=1;shape=mxgraph.flowchart.start_2;whiteSpace=wrap;fillColor=#dae8fc;strokeColor=#7EA6E0;" vertex="1" parent="1">
                    <mxGeometry x="1050" y="438" width="40" height="40" as="geometry"/>
                </mxCell>
                <mxCell id="61" value="&lt;span style=&quot;color: rgb(0 , 0 , 0) ; font-family: &amp;#34;helvetica&amp;#34; ; font-size: 11px ; font-style: normal ; font-weight: 400 ; letter-spacing: normal ; text-align: center ; text-indent: 0px ; text-transform: none ; word-spacing: 0px ; background-color: rgb(248 , 249 , 250) ; display: inline ; float: none&quot;&gt;No&lt;/span&gt;" style="text;whiteSpace=wrap;html=1;strokeColor=#FFFFFF;" vertex="1" parent="1">
                    <mxGeometry x="1005" y="428" width="40" height="20" as="geometry"/>
                </mxCell>
                <mxCell id="62" value="FGP" style="strokeWidth=2;html=1;shape=mxgraph.flowchart.start_2;whiteSpace=wrap;fillColor=#f8cecc;strokeColor=#F19C99;" vertex="1" parent="1">
                    <mxGeometry x="940" y="618" width="40" height="40" as="geometry"/>
                </mxCell>
                <mxCell id="63" style="edgeStyle=orthogonalEdgeStyle;rounded=0;orthogonalLoop=1;jettySize=auto;html=1;strokeColor=#000000;" edge="1" parent="1" source="64" target="66">
                    <mxGeometry relative="1" as="geometry"/>
                </mxCell>
                <mxCell id="64" value="FGP" style="strokeWidth=2;html=1;shape=mxgraph.flowchart.start_2;whiteSpace=wrap;fillColor=#f8cecc;strokeColor=#FFFFFF;" vertex="1" parent="1">
                    <mxGeometry x="20" y="708" width="40" height="40" as="geometry"/>
                </mxCell>
                <mxCell id="65" value="" style="edgeStyle=orthogonalEdgeStyle;rounded=0;orthogonalLoop=1;jettySize=auto;html=1;strokeColor=#000000;fillColor=#f8cecc;" edge="1" parent="1" source="66" target="68">
                    <mxGeometry relative="1" as="geometry"/>
                </mxCell>
                <mxCell id="66" value="Forgot Password" style="strokeWidth=1;html=1;shape=mxgraph.flowchart.terminator;whiteSpace=wrap;fillColor=#f8cecc;strokeColor=#FFFFFF;" vertex="1" parent="1">
                    <mxGeometry x="90" y="708" width="80" height="40" as="geometry"/>
                </mxCell>
                <mxCell id="67" value="" style="edgeStyle=orthogonalEdgeStyle;rounded=0;orthogonalLoop=1;jettySize=auto;html=1;strokeColor=#000000;entryX=0;entryY=0.5;entryDx=0;entryDy=0;fillColor=#f8cecc;" edge="1" parent="1" source="68" target="71">
                    <mxGeometry relative="1" as="geometry">
                        <mxPoint x="420" y="728" as="targetPoint"/>
                    </mxGeometry>
                </mxCell>
                <mxCell id="68" value="Enter user email&amp;nbsp;" style="whiteSpace=wrap;html=1;strokeWidth=1;fillColor=#f8cecc;strokeColor=#FFFFFF;" vertex="1" parent="1">
                    <mxGeometry x="220" y="698" width="120" height="60" as="geometry"/>
                </mxCell>
                <mxCell id="69" value="" style="edgeStyle=orthogonalEdgeStyle;rounded=0;orthogonalLoop=1;jettySize=auto;html=1;strokeColor=#000000;entryX=0;entryY=0.5;entryDx=0;entryDy=0;fillColor=#f8cecc;" edge="1" parent="1" source="71" target="73">
                    <mxGeometry relative="1" as="geometry"/>
                </mxCell>
                <mxCell id="70" style="edgeStyle=orthogonalEdgeStyle;rounded=0;orthogonalLoop=1;jettySize=auto;html=1;strokeColor=#FFFFFF;fillColor=#f8cecc;" edge="1" parent="1" source="71" target="77">
                    <mxGeometry relative="1" as="geometry"/>
                </mxCell>
                <mxCell id="71" value="&lt;span&gt;check to see if email address exist&lt;/span&gt;" style="rhombus;whiteSpace=wrap;html=1;strokeWidth=1;fillColor=#f8cecc;strokeColor=#000000;" vertex="1" parent="1">
                    <mxGeometry x="390" y="668" width="140" height="120" as="geometry"/>
                </mxCell>
                <mxCell id="72" value="" style="edgeStyle=orthogonalEdgeStyle;rounded=0;orthogonalLoop=1;jettySize=auto;html=1;strokeColor=#000000;fillColor=#f8cecc;" edge="1" parent="1" source="73" target="74">
                    <mxGeometry relative="1" as="geometry"/>
                </mxCell>
                <mxCell id="73" value="Send link to email to reset password" style="whiteSpace=wrap;html=1;strokeWidth=1;fillColor=#f8cecc;strokeColor=#000000;" vertex="1" parent="1">
                    <mxGeometry x="620" y="698" width="120" height="60" as="geometry"/>
                </mxCell>
                <mxCell id="74" value="Generate Firebase reset password form" style="whiteSpace=wrap;html=1;strokeWidth=1;fillColor=#f8cecc;strokeColor=#000000;" vertex="1" parent="1">
                    <mxGeometry x="820" y="698" width="120" height="60" as="geometry"/>
                </mxCell>
                <mxCell id="75" value="Yes" style="text;html=1;align=center;verticalAlign=middle;resizable=0;points=[];autosize=1;strokeColor=none;fillColor=none;" vertex="1" parent="1">
                    <mxGeometry x="540" y="708" width="40" height="20" as="geometry"/>
                </mxCell>
                <mxCell id="76" style="edgeStyle=orthogonalEdgeStyle;rounded=0;orthogonalLoop=1;jettySize=auto;html=1;entryX=0.5;entryY=0;entryDx=0;entryDy=0;entryPerimeter=0;strokeColor=#000000;" edge="1" parent="1" source="77" target="81">
                    <mxGeometry relative="1" as="geometry"/>
                </mxCell>
                <mxCell id="77" value="Display email &lt;br&gt;doesn't exist" style="shape=parallelogram;html=1;strokeWidth=1;perimeter=parallelogramPerimeter;whiteSpace=wrap;rounded=1;arcSize=0;size=0.23;fillColor=#f8cecc;strokeColor=#FFFFFF;" vertex="1" parent="1">
                    <mxGeometry x="387.5" y="828" width="145" height="60" as="geometry"/>
                </mxCell>
                <mxCell id="78" value="No" style="text;html=1;align=center;verticalAlign=middle;resizable=0;points=[];autosize=1;strokeColor=#FFFFFF;fillColor=none;" vertex="1" parent="1">
                    <mxGeometry x="470" y="788" width="30" height="20" as="geometry"/>
                </mxCell>
                <mxCell id="79" style="edgeStyle=orthogonalEdgeStyle;rounded=0;orthogonalLoop=1;jettySize=auto;html=1;entryX=0;entryY=0.5;entryDx=0;entryDy=0;strokeColor=#000000;" edge="1" parent="1">
                    <mxGeometry relative="1" as="geometry">
                        <mxPoint x="560" y="342.76" as="sourcePoint"/>
                        <mxPoint x="600" y="342.76" as="targetPoint"/>
                    </mxGeometry>
                </mxCell>
                <mxCell id="80" value="" style="edgeStyle=orthogonalEdgeStyle;rounded=0;orthogonalLoop=1;jettySize=auto;html=1;strokeColor=#000000;" edge="1" parent="1">
                    <mxGeometry relative="1" as="geometry">
                        <mxPoint x="890" y="457.72" as="sourcePoint"/>
                        <mxPoint x="915" y="457.72" as="targetPoint"/>
                    </mxGeometry>
                </mxCell>
                <mxCell id="81" value="REG" style="strokeWidth=2;html=1;shape=mxgraph.flowchart.start_2;whiteSpace=wrap;fillColor=#fff2cc;strokeColor=#FFE599;" vertex="1" parent="1">
                    <mxGeometry x="440" y="928" width="40" height="40" as="geometry"/>
                </mxCell>
                <mxCell id="82" value="" style="edgeStyle=orthogonalEdgeStyle;rounded=0;orthogonalLoop=1;jettySize=auto;html=1;strokeColor=#FFFFFF;" edge="1" parent="1">
                    <mxGeometry relative="1" as="geometry">
                        <mxPoint x="580" y="83.8" as="sourcePoint"/>
                        <mxPoint x="620" y="83.8" as="targetPoint"/>
                    </mxGeometry>
                </mxCell>
                <mxCell id="83" value="" style="edgeStyle=orthogonalEdgeStyle;rounded=0;orthogonalLoop=1;jettySize=auto;html=1;strokeColor=#000000;" edge="1" parent="1">
                    <mxGeometry relative="1" as="geometry">
                        <mxPoint x="580" y="83.80000000000001" as="sourcePoint"/>
                        <mxPoint x="620" y="83.80000000000001" as="targetPoint"/>
                    </mxGeometry>
                </mxCell>
                <mxCell id="84" value="PF" style="ellipse;whiteSpace=wrap;html=1;rounded=1;shadow=0;strokeColor=#82b366;strokeWidth=1;fillColor=#d5e8d4;glass=0;" vertex="1" parent="1">
                    <mxGeometry x="1110" y="323" width="40" height="40" as="geometry"/>
                </mxCell>
                <mxCell id="85" style="edgeStyle=orthogonalEdgeStyle;rounded=0;orthogonalLoop=1;jettySize=auto;html=1;strokeColor=#000000;fillColor=#f8cecc;" edge="1" parent="1">
                    <mxGeometry relative="1" as="geometry">
                        <mxPoint x="460" y="788" as="sourcePoint"/>
                        <mxPoint x="460" y="828" as="targetPoint"/>
                    </mxGeometry>
                </mxCell>
                <mxCell id="86" value="LOG" style="strokeWidth=2;html=1;shape=mxgraph.flowchart.start_2;whiteSpace=wrap;fillColor=#dae8fc;strokeColor=#7EA6E0;" vertex="1" parent="1">
                    <mxGeometry x="20" y="323" width="40" height="40" as="geometry"/>
                </mxCell>
                <mxCell id="87" value="Login" style="rounded=1;whiteSpace=wrap;html=1;fontSize=12;glass=0;strokeWidth=1;shadow=0;arcSize=50;fillColor=#dae8fc;strokeColor=#000000;" vertex="1" parent="1">
                    <mxGeometry x="90" y="323" width="120" height="40" as="geometry"/>
                </mxCell>
                <mxCell id="88" value="Has there been an&lt;br&gt;error attempts at login?&lt;div id=&quot;SDCloudData&quot; style=&quot;display: none&quot;&gt;&lt;/div&gt;" style="rhombus;whiteSpace=wrap;html=1;shadow=0;fontFamily=Helvetica;fontSize=12;align=center;strokeWidth=1;spacing=6;spacingTop=-4;fillColor=#dae8fc;strokeColor=#000000;" vertex="1" parent="1">
                    <mxGeometry x="250" y="278" width="150" height="130" as="geometry"/>
                </mxCell>
                <mxCell id="89" value="Display error" style="rounded=1;whiteSpace=wrap;html=1;fontSize=12;glass=0;strokeWidth=1;shadow=0;fillColor=#dae8fc;strokeColor=#000000;" vertex="1" parent="1">
                    <mxGeometry x="265" y="443" width="120" height="40" as="geometry"/>
                </mxCell>
                <mxCell id="90" value="Does user exist&lt;br&gt;in the database?&lt;br&gt;&lt;div id=&quot;SDCloudData&quot; style=&quot;display: none&quot;&gt;&lt;/div&gt;" style="rhombus;whiteSpace=wrap;html=1;shadow=0;fontFamily=Helvetica;fontSize=12;align=center;strokeWidth=1;spacing=6;spacingTop=-4;fillColor=#dae8fc;strokeColor=#000000;" vertex="1" parent="1">
                    <mxGeometry x="440" y="288" width="120" height="110" as="geometry"/>
                </mxCell>
                <mxCell id="91" value="Display error" style="rounded=1;whiteSpace=wrap;html=1;fontSize=12;glass=0;strokeWidth=1;shadow=0;fillColor=#dae8fc;strokeColor=#000000;" vertex="1" parent="1">
                    <mxGeometry x="440" y="438" width="120" height="40" as="geometry"/>
                </mxCell>
                <mxCell id="92" value="REG" style="strokeWidth=2;html=1;shape=mxgraph.flowchart.start_2;whiteSpace=wrap;fillColor=#fff2cc;strokeColor=#FFE599;" vertex="1" parent="1">
                    <mxGeometry x="480" y="498" width="40" height="40" as="geometry"/>
                </mxCell>
                <mxCell id="93" value="Display error" style="rounded=1;whiteSpace=wrap;html=1;fontSize=12;glass=0;strokeWidth=1;shadow=0;fillColor=#dae8fc;strokeColor=#000000;" vertex="1" parent="1">
                    <mxGeometry x="600" y="443" width="120" height="40" as="geometry"/>
                </mxCell>
                <mxCell id="94" value="FGP" style="strokeWidth=2;html=1;shape=mxgraph.flowchart.start_2;whiteSpace=wrap;fillColor=#f8cecc;strokeColor=#F19C99;" vertex="1" parent="1">
                    <mxGeometry x="20" y="708" width="40" height="40" as="geometry"/>
                </mxCell>
                <mxCell id="95" value="Forgot Password" style="strokeWidth=1;html=1;shape=mxgraph.flowchart.terminator;whiteSpace=wrap;fillColor=#f8cecc;strokeColor=#000000;" vertex="1" parent="1">
                    <mxGeometry x="90" y="708" width="80" height="40" as="geometry"/>
                </mxCell>
                <mxCell id="96" value="Enter user email&amp;nbsp;" style="whiteSpace=wrap;html=1;strokeWidth=1;fillColor=#f8cecc;strokeColor=#000000;" vertex="1" parent="1">
                    <mxGeometry x="220" y="698" width="120" height="60" as="geometry"/>
                </mxCell>
                <mxCell id="97" value="Display email &lt;br&gt;doesn't exist" style="shape=parallelogram;html=1;strokeWidth=1;perimeter=parallelogramPerimeter;whiteSpace=wrap;rounded=1;arcSize=0;size=0.23;fillColor=#f8cecc;strokeColor=#000000;" vertex="1" parent="1">
                    <mxGeometry x="387.5" y="828" width="145" height="60" as="geometry"/>
                </mxCell>
                <mxCell id="98" style="edgeStyle=orthogonalEdgeStyle;rounded=0;orthogonalLoop=1;jettySize=auto;html=1;exitX=1;exitY=0.5;exitDx=0;exitDy=0;endArrow=classic;endFill=1;strokeColor=#000000;" edge="1" parent="1" source="99">
                    <mxGeometry relative="1" as="geometry">
                        <mxPoint x="1390" y="116" as="targetPoint"/>
                    </mxGeometry>
                </mxCell>
                <mxCell id="99" value="PF" style="ellipse;whiteSpace=wrap;html=1;rounded=1;shadow=0;strokeColor=#82b366;strokeWidth=1;fillColor=#d5e8d4;glass=0;" vertex="1" parent="1">
                    <mxGeometry x="1260" y="96" width="40" height="40" as="geometry"/>
                </mxCell>
                <mxCell id="100" style="edgeStyle=orthogonalEdgeStyle;rounded=0;orthogonalLoop=1;jettySize=auto;html=1;endArrow=classic;endFill=1;strokeColor=#000000;entryX=0;entryY=0.5;entryDx=0;entryDy=0;entryPerimeter=0;" edge="1" parent="1" source="102" target="124">
                    <mxGeometry relative="1" as="geometry">
                        <mxPoint x="1370" y="116" as="targetPoint"/>
                        <Array as="points">
                            <mxPoint x="1320" y="263"/>
                            <mxPoint x="1320" y="115"/>
                        </Array>
                    </mxGeometry>
                </mxCell>
                <mxCell id="101" style="edgeStyle=orthogonalEdgeStyle;rounded=0;orthogonalLoop=1;jettySize=auto;html=1;endArrow=classic;endFill=1;strokeColor=#000000;entryX=0.5;entryY=0;entryDx=0;entryDy=0;" edge="1" parent="1" source="102" target="107">
                    <mxGeometry relative="1" as="geometry">
                        <mxPoint x="1450" y="370" as="targetPoint"/>
                    </mxGeometry>
                </mxCell>
                <mxCell id="102" value="Does the user want to level up&lt;br&gt;&amp;nbsp;their status?" style="rhombus;whiteSpace=wrap;html=1;rounded=1;strokeWidth=1;arcSize=0;fillColor=#d5e8d4;strokeColor=#82b366;" vertex="1" parent="1">
                    <mxGeometry x="1347.5" y="206" width="205" height="114" as="geometry"/>
                </mxCell>
                <mxCell id="103" style="edgeStyle=orthogonalEdgeStyle;rounded=0;orthogonalLoop=1;jettySize=auto;html=1;endArrow=classic;endFill=1;strokeColor=#000000;" edge="1" parent="1" source="105" target="124">
                    <mxGeometry relative="1" as="geometry">
                        <mxPoint x="1590" y="150" as="targetPoint"/>
                        <Array as="points">
                            <mxPoint x="1765" y="240"/>
                            <mxPoint x="1540" y="240"/>
                            <mxPoint x="1540" y="116"/>
                        </Array>
                    </mxGeometry>
                </mxCell>
                <mxCell id="104" value="" style="edgeStyle=orthogonalEdgeStyle;rounded=0;orthogonalLoop=1;jettySize=auto;html=1;endArrow=classic;endFill=1;strokeColor=#000000;" edge="1" parent="1" source="105" target="111">
                    <mxGeometry relative="1" as="geometry"/>
                </mxCell>
                <mxCell id="105" value="Does the user want to change&lt;br&gt;password" style="rhombus;whiteSpace=wrap;html=1;rounded=1;strokeWidth=1;arcSize=0;fillColor=#d5e8d4;strokeColor=#82b366;" vertex="1" parent="1">
                    <mxGeometry x="1660" y="44" width="210" height="144" as="geometry"/>
                </mxCell>
                <mxCell id="106" value="&lt;span style=&quot;color: rgb(0 , 0 , 0) ; font-family: &amp;#34;helvetica&amp;#34; ; font-size: 11px ; font-style: normal ; font-weight: 400 ; letter-spacing: normal ; text-align: center ; text-indent: 0px ; text-transform: none ; word-spacing: 0px ; background-color: rgb(248 , 249 , 250) ; display: inline ; float: none&quot;&gt;No&lt;/span&gt;" style="text;whiteSpace=wrap;html=1;strokeColor=#FFFFFF;" vertex="1" parent="1">
                    <mxGeometry x="1330" y="226" width="40" height="20" as="geometry"/>
                </mxCell>
                <mxCell id="107" value="CRS" style="ellipse;whiteSpace=wrap;html=1;rounded=1;shadow=0;strokeColor=#d79b00;strokeWidth=1;fillColor=#ffe6cc;glass=0;" vertex="1" parent="1">
                    <mxGeometry x="1430" y="385" width="40" height="40" as="geometry"/>
                </mxCell>
                <mxCell id="108" value="&lt;span style=&quot;color: rgb(0 , 0 , 0) ; font-family: &amp;#34;helvetica&amp;#34; ; font-size: 11px ; font-style: normal ; font-weight: 400 ; letter-spacing: normal ; text-align: center ; text-indent: 0px ; text-transform: none ; word-spacing: 0px ; background-color: rgb(248 , 249 , 250) ; display: inline ; float: none&quot;&gt;Yes&lt;/span&gt;" style="text;whiteSpace=wrap;html=1;strokeColor=none;" vertex="1" parent="1">
                    <mxGeometry x="1440" y="340" width="40" height="20" as="geometry"/>
                </mxCell>
                <mxCell id="109" value="&lt;span style=&quot;color: rgb(0 , 0 , 0) ; font-family: &amp;#34;helvetica&amp;#34; ; font-size: 11px ; font-style: normal ; font-weight: 400 ; letter-spacing: normal ; text-align: center ; text-indent: 0px ; text-transform: none ; word-spacing: 0px ; background-color: rgb(248 , 249 , 250) ; display: inline ; float: none&quot;&gt;No&lt;/span&gt;" style="text;whiteSpace=wrap;html=1;strokeColor=none;" vertex="1" parent="1">
                    <mxGeometry x="1660" y="216" width="40" height="20" as="geometry"/>
                </mxCell>
                <mxCell id="110" value="" style="edgeStyle=orthogonalEdgeStyle;rounded=0;orthogonalLoop=1;jettySize=auto;html=1;endArrow=classic;endFill=1;strokeColor=#000000;" edge="1" parent="1" source="111" target="113">
                    <mxGeometry relative="1" as="geometry"/>
                </mxCell>
                <mxCell id="111" value="Show Settings Offcanvas" style="whiteSpace=wrap;html=1;rounded=1;strokeWidth=1;arcSize=50;fillColor=#d5e8d4;strokeColor=#82b366;" vertex="1" parent="1">
                    <mxGeometry x="1930" y="86" width="120" height="60" as="geometry"/>
                </mxCell>
                <mxCell id="112" style="edgeStyle=orthogonalEdgeStyle;rounded=0;orthogonalLoop=1;jettySize=auto;html=1;exitX=0.5;exitY=1;exitDx=0;exitDy=0;entryX=0.498;entryY=0.093;entryDx=0;entryDy=0;entryPerimeter=0;endArrow=classic;endFill=1;strokeColor=#000000;" edge="1" parent="1" source="113" target="117">
                    <mxGeometry relative="1" as="geometry"/>
                </mxCell>
                <mxCell id="113" value="Change Password Form Show" style="whiteSpace=wrap;html=1;rounded=1;strokeWidth=1;arcSize=0;fillColor=#d5e8d4;strokeColor=#82b366;" vertex="1" parent="1">
                    <mxGeometry x="1930" y="188" width="120" height="60" as="geometry"/>
                </mxCell>
                <mxCell id="114" value="&lt;span style=&quot;color: rgb(0 , 0 , 0) ; font-family: &amp;#34;helvetica&amp;#34; ; font-size: 11px ; font-style: normal ; font-weight: 400 ; letter-spacing: normal ; text-align: center ; text-indent: 0px ; text-transform: none ; word-spacing: 0px ; background-color: rgb(248 , 249 , 250) ; display: inline ; float: none&quot;&gt;Yes&lt;/span&gt;" style="text;whiteSpace=wrap;html=1;strokeColor=none;" vertex="1" parent="1">
                    <mxGeometry x="1880" y="88.5" width="40" height="20" as="geometry"/>
                </mxCell>
                <mxCell id="115" style="edgeStyle=orthogonalEdgeStyle;rounded=0;orthogonalLoop=1;jettySize=auto;html=1;entryX=0.5;entryY=0;entryDx=0;entryDy=0;entryPerimeter=0;endArrow=classic;endFill=1;strokeColor=#000000;" edge="1" parent="1" source="117" target="118">
                    <mxGeometry relative="1" as="geometry"/>
                </mxCell>
                <mxCell id="116" style="edgeStyle=orthogonalEdgeStyle;rounded=0;orthogonalLoop=1;jettySize=auto;html=1;entryX=0.5;entryY=0;entryDx=0;entryDy=0;entryPerimeter=0;endArrow=classic;endFill=1;strokeColor=#000000;" edge="1" parent="1" source="117" target="124">
                    <mxGeometry relative="1" as="geometry">
                        <Array as="points">
                            <mxPoint x="2140" y="335"/>
                            <mxPoint x="2140" y="20"/>
                            <mxPoint x="1450" y="20"/>
                        </Array>
                    </mxGeometry>
                </mxCell>
                <mxCell id="117" value="Input:Current Password&lt;br&gt;New Password&lt;br&gt;Confirm Password" style="html=1;strokeWidth=1;shape=manualInput;whiteSpace=wrap;rounded=1;size=26;arcSize=11;fillColor=#d5e8d4;strokeColor=#82b366;" vertex="1" parent="1">
                    <mxGeometry x="1910" y="280" width="160" height="110" as="geometry"/>
                </mxCell>
                <mxCell id="118" value="Update Stored Password in &lt;br&gt;Firebase" style="strokeWidth=1;html=1;shape=mxgraph.flowchart.stored_data;whiteSpace=wrap;fillColor=#d5e8d4;strokeColor=#82b366;" vertex="1" parent="1">
                    <mxGeometry x="1925" y="430" width="130" height="60" as="geometry"/>
                </mxCell>
                <mxCell id="119" style="edgeStyle=orthogonalEdgeStyle;rounded=0;orthogonalLoop=1;jettySize=auto;html=1;endArrow=classic;endFill=1;strokeColor=#000000;entryX=0;entryY=0.5;entryDx=0;entryDy=0;entryPerimeter=0;exitX=0.93;exitY=0.5;exitDx=0;exitDy=0;exitPerimeter=0;" edge="1" parent="1" source="121" target="59">
                    <mxGeometry relative="1" as="geometry">
                        <mxPoint x="1100" y="184" as="targetPoint"/>
                    </mxGeometry>
                </mxCell>
                <mxCell id="120" value="" style="edgeStyle=orthogonalEdgeStyle;rounded=0;orthogonalLoop=1;jettySize=auto;html=1;endArrow=classic;endFill=1;strokeColor=#000000;" edge="1" parent="1" source="121" target="59">
                    <mxGeometry relative="1" as="geometry"/>
                </mxCell>
                <mxCell id="121" value="Stored New user&lt;br&gt;in Firebase&lt;br&gt;Database" style="strokeWidth=1;html=1;shape=mxgraph.flowchart.stored_data;whiteSpace=wrap;fillColor=#fff2cc;strokeColor=#000000;" vertex="1" parent="1">
                    <mxGeometry x="970" y="154" width="120" height="60" as="geometry"/>
                </mxCell>
                <mxCell id="122" style="edgeStyle=orthogonalEdgeStyle;rounded=0;orthogonalLoop=1;jettySize=auto;html=1;entryX=0.5;entryY=0;entryDx=0;entryDy=0;endArrow=classic;endFill=1;strokeColor=#000000;" edge="1" parent="1" source="124" target="102">
                    <mxGeometry relative="1" as="geometry"/>
                </mxCell>
                <mxCell id="123" style="edgeStyle=orthogonalEdgeStyle;rounded=0;orthogonalLoop=1;jettySize=auto;html=1;exitX=1;exitY=0.5;exitDx=0;exitDy=0;exitPerimeter=0;entryX=0;entryY=0.5;entryDx=0;entryDy=0;endArrow=classic;endFill=1;strokeColor=#000000;" edge="1" parent="1" source="124" target="105">
                    <mxGeometry relative="1" as="geometry"/>
                </mxCell>
                <mxCell id="124" value="&lt;span&gt;Display User info&lt;/span&gt;&lt;br&gt;&lt;span&gt;&amp;amp; status&lt;/span&gt;" style="strokeWidth=1;html=1;shape=mxgraph.flowchart.display;whiteSpace=wrap;fillColor=#d5e8d4;strokeColor=#82b366;" vertex="1" parent="1">
                    <mxGeometry x="1390" y="76" width="120" height="78.5" as="geometry"/>
                </mxCell>
                <mxCell id="125" value="" style="edgeStyle=orthogonalEdgeStyle;rounded=0;orthogonalLoop=1;jettySize=auto;html=1;endArrow=classic;endFill=1;strokeColor=#000000;" edge="1" parent="1" source="126" target="128">
                    <mxGeometry relative="1" as="geometry"/>
                </mxCell>
                <mxCell id="126" value="Navigation" style="strokeWidth=1;html=1;shape=mxgraph.flowchart.terminator;whiteSpace=wrap;" vertex="1" parent="1">
                    <mxGeometry x="40" y="1098" width="80" height="40" as="geometry"/>
                </mxCell>
                <mxCell id="127" value="" style="edgeStyle=orthogonalEdgeStyle;rounded=0;orthogonalLoop=1;jettySize=auto;html=1;endArrow=classic;endFill=1;strokeColor=#000000;" edge="1" parent="1" source="128" target="131">
                    <mxGeometry relative="1" as="geometry"/>
                </mxCell>
                <mxCell id="128" value="Switch Pages" style="whiteSpace=wrap;html=1;strokeWidth=1;" vertex="1" parent="1">
                    <mxGeometry x="160" y="1088" width="120" height="60" as="geometry"/>
                </mxCell>
                <mxCell id="129" value="" style="edgeStyle=orthogonalEdgeStyle;rounded=0;orthogonalLoop=1;jettySize=auto;html=1;endArrow=classic;endFill=1;strokeColor=#000000;" edge="1" parent="1" source="131" target="134">
                    <mxGeometry relative="1" as="geometry"/>
                </mxCell>
                <mxCell id="130" value="" style="edgeStyle=orthogonalEdgeStyle;rounded=0;orthogonalLoop=1;jettySize=auto;html=1;endArrow=classic;endFill=1;strokeColor=#000000;entryX=0.5;entryY=0;entryDx=0;entryDy=0;entryPerimeter=0;" edge="1" parent="1" source="131" target="149">
                    <mxGeometry relative="1" as="geometry">
                        <mxPoint x="380" y="1240" as="targetPoint"/>
                    </mxGeometry>
                </mxCell>
                <mxCell id="131" value="Home" style="rhombus;whiteSpace=wrap;html=1;strokeWidth=1;" vertex="1" parent="1">
                    <mxGeometry x="340" y="1078" width="80" height="80" as="geometry"/>
                </mxCell>
                <mxCell id="132" value="" style="edgeStyle=orthogonalEdgeStyle;rounded=0;orthogonalLoop=1;jettySize=auto;html=1;endArrow=classic;endFill=1;strokeColor=#000000;" edge="1" parent="1" source="134" target="137">
                    <mxGeometry relative="1" as="geometry"/>
                </mxCell>
                <mxCell id="133" style="edgeStyle=orthogonalEdgeStyle;rounded=0;orthogonalLoop=1;jettySize=auto;html=1;exitX=0.5;exitY=1;exitDx=0;exitDy=0;endArrow=classic;endFill=1;strokeColor=#000000;" edge="1" parent="1" source="134" target="150">
                    <mxGeometry relative="1" as="geometry"/>
                </mxCell>
                <mxCell id="134" value="Course" style="rhombus;whiteSpace=wrap;html=1;strokeWidth=1;" vertex="1" parent="1">
                    <mxGeometry x="480" y="1078" width="80" height="80" as="geometry"/>
                </mxCell>
                <mxCell id="135" value="" style="edgeStyle=orthogonalEdgeStyle;rounded=0;orthogonalLoop=1;jettySize=auto;html=1;endArrow=classic;endFill=1;strokeColor=#000000;" edge="1" parent="1" source="137" target="140">
                    <mxGeometry relative="1" as="geometry"/>
                </mxCell>
                <mxCell id="136" style="edgeStyle=orthogonalEdgeStyle;rounded=0;orthogonalLoop=1;jettySize=auto;html=1;exitX=0.5;exitY=1;exitDx=0;exitDy=0;entryX=0.5;entryY=0;entryDx=0;entryDy=0;entryPerimeter=0;endArrow=classic;endFill=1;strokeColor=#000000;" edge="1" parent="1" source="137" target="151">
                    <mxGeometry relative="1" as="geometry"/>
                </mxCell>
                <mxCell id="137" value="Games" style="rhombus;whiteSpace=wrap;html=1;strokeWidth=1;" vertex="1" parent="1">
                    <mxGeometry x="620" y="1078" width="80" height="80" as="geometry"/>
                </mxCell>
                <mxCell id="138" value="" style="edgeStyle=orthogonalEdgeStyle;rounded=0;orthogonalLoop=1;jettySize=auto;html=1;endArrow=classic;endFill=1;strokeColor=#000000;" edge="1" parent="1" source="140" target="143">
                    <mxGeometry relative="1" as="geometry"/>
                </mxCell>
                <mxCell id="139" style="edgeStyle=orthogonalEdgeStyle;rounded=0;orthogonalLoop=1;jettySize=auto;html=1;exitX=0.5;exitY=1;exitDx=0;exitDy=0;entryX=0.5;entryY=0;entryDx=0;entryDy=0;entryPerimeter=0;endArrow=classic;endFill=1;strokeColor=#000000;" edge="1" parent="1" source="140" target="152">
                    <mxGeometry relative="1" as="geometry"/>
                </mxCell>
                <mxCell id="140" value="Tutorial" style="rhombus;whiteSpace=wrap;html=1;strokeWidth=1;" vertex="1" parent="1">
                    <mxGeometry x="760" y="1078" width="80" height="80" as="geometry"/>
                </mxCell>
                <mxCell id="141" value="" style="edgeStyle=orthogonalEdgeStyle;rounded=0;orthogonalLoop=1;jettySize=auto;html=1;endArrow=classic;endFill=1;strokeColor=#000000;" edge="1" parent="1" source="143" target="146">
                    <mxGeometry relative="1" as="geometry"/>
                </mxCell>
                <mxCell id="142" style="edgeStyle=orthogonalEdgeStyle;rounded=0;orthogonalLoop=1;jettySize=auto;html=1;exitX=0.5;exitY=1;exitDx=0;exitDy=0;entryX=0.5;entryY=0;entryDx=0;entryDy=0;entryPerimeter=0;endArrow=classic;endFill=1;strokeColor=#000000;" edge="1" parent="1" source="143" target="153">
                    <mxGeometry relative="1" as="geometry"/>
                </mxCell>
                <mxCell id="143" value="Forum" style="rhombus;whiteSpace=wrap;html=1;strokeWidth=1;" vertex="1" parent="1">
                    <mxGeometry x="900" y="1078" width="80" height="80" as="geometry"/>
                </mxCell>
                <mxCell id="144" value="" style="edgeStyle=orthogonalEdgeStyle;rounded=0;orthogonalLoop=1;jettySize=auto;html=1;endArrow=classic;endFill=1;strokeColor=#000000;" edge="1" parent="1" source="146" target="148">
                    <mxGeometry relative="1" as="geometry"/>
                </mxCell>
                <mxCell id="145" style="edgeStyle=orthogonalEdgeStyle;rounded=0;orthogonalLoop=1;jettySize=auto;html=1;exitX=0.5;exitY=1;exitDx=0;exitDy=0;entryX=0.5;entryY=0;entryDx=0;entryDy=0;entryPerimeter=0;endArrow=classic;endFill=1;strokeColor=#000000;" edge="1" parent="1" source="146" target="154">
                    <mxGeometry relative="1" as="geometry"/>
                </mxCell>
                <mxCell id="146" value="Profile" style="rhombus;whiteSpace=wrap;html=1;strokeWidth=1;fillColor=#B3B3B3;" vertex="1" parent="1">
                    <mxGeometry x="1030" y="1078" width="80" height="80" as="geometry"/>
                </mxCell>
                <mxCell id="147" value="" style="edgeStyle=orthogonalEdgeStyle;rounded=0;orthogonalLoop=1;jettySize=auto;html=1;endArrow=classic;endFill=1;strokeColor=#000000;" edge="1" parent="1" source="148" target="155">
                    <mxGeometry relative="1" as="geometry"/>
                </mxCell>
                <mxCell id="148" value="Logout" style="rhombus;whiteSpace=wrap;html=1;strokeWidth=1;fillColor=#B3B3B3;" vertex="1" parent="1">
                    <mxGeometry x="1160" y="1078" width="80" height="80" as="geometry"/>
                </mxCell>
                <mxCell id="149" value="Show Home Page" style="strokeWidth=1;html=1;shape=mxgraph.flowchart.display;whiteSpace=wrap;" vertex="1" parent="1">
                    <mxGeometry x="325" y="1240" width="110" height="60" as="geometry"/>
                </mxCell>
                <mxCell id="150" value="Show Home Page" style="strokeWidth=1;html=1;shape=mxgraph.flowchart.display;whiteSpace=wrap;" vertex="1" parent="1">
                    <mxGeometry x="465" y="1240" width="110" height="60" as="geometry"/>
                </mxCell>
                <mxCell id="151" value="Show Home Page" style="strokeWidth=1;html=1;shape=mxgraph.flowchart.display;whiteSpace=wrap;fillColor=#B3B3B3;" vertex="1" parent="1">
                    <mxGeometry x="605" y="1240" width="110" height="60" as="geometry"/>
                </mxCell>
                <mxCell id="152" value="Show Home Page" style="strokeWidth=1;html=1;shape=mxgraph.flowchart.display;whiteSpace=wrap;" vertex="1" parent="1">
                    <mxGeometry x="745" y="1240" width="110" height="60" as="geometry"/>
                </mxCell>
                <mxCell id="153" value="Show Home Page" style="strokeWidth=1;html=1;shape=mxgraph.flowchart.display;whiteSpace=wrap;" vertex="1" parent="1">
                    <mxGeometry x="885" y="1240" width="110" height="60" as="geometry"/>
                </mxCell>
                <mxCell id="154" value="Show Home Page" style="strokeWidth=1;html=1;shape=mxgraph.flowchart.display;whiteSpace=wrap;" vertex="1" parent="1">
                    <mxGeometry x="1015" y="1240" width="110" height="60" as="geometry"/>
                </mxCell>
                <mxCell id="155" value="Redirect to Home Guest" style="ellipse;whiteSpace=wrap;html=1;strokeWidth=1;fillColor=#B3B3B3;" vertex="1" parent="1">
                    <mxGeometry x="1300" y="1088" width="120" height="60" as="geometry"/>
                </mxCell>
                <mxCell id="156" value="Navigation" style="strokeWidth=1;html=1;shape=mxgraph.flowchart.terminator;whiteSpace=wrap;" vertex="1" parent="1">
                    <mxGeometry x="40" y="1098" width="80" height="40" as="geometry"/>
                </mxCell>
                <mxCell id="157" value="Switch Pages" style="whiteSpace=wrap;html=1;strokeWidth=1;" vertex="1" parent="1">
                    <mxGeometry x="160" y="1088" width="120" height="60" as="geometry"/>
                </mxCell>
                <mxCell id="158" value="Home" style="rhombus;whiteSpace=wrap;html=1;strokeWidth=1;" vertex="1" parent="1">
                    <mxGeometry x="340" y="1078" width="80" height="80" as="geometry"/>
                </mxCell>
                <mxCell id="159" value="Show Home Page" style="strokeWidth=1;html=1;shape=mxgraph.flowchart.display;whiteSpace=wrap;" vertex="1" parent="1">
                    <mxGeometry x="325" y="1240" width="110" height="60" as="geometry"/>
                </mxCell>
                <mxCell id="160" value="Show Home Page" style="strokeWidth=1;html=1;shape=mxgraph.flowchart.display;whiteSpace=wrap;" vertex="1" parent="1">
                    <mxGeometry x="465" y="1240" width="110" height="60" as="geometry"/>
                </mxCell>
                <mxCell id="161" value="Course" style="rhombus;whiteSpace=wrap;html=1;strokeWidth=1;" vertex="1" parent="1">
                    <mxGeometry x="480" y="1078" width="80" height="80" as="geometry"/>
                </mxCell>
                <mxCell id="162" value="Games" style="rhombus;whiteSpace=wrap;html=1;strokeWidth=1;" vertex="1" parent="1">
                    <mxGeometry x="620" y="1078" width="80" height="80" as="geometry"/>
                </mxCell>
                <mxCell id="163" value="Navigation" style="strokeWidth=1;html=1;shape=mxgraph.flowchart.terminator;whiteSpace=wrap;fillColor=#B3B3B3;" vertex="1" parent="1">
                    <mxGeometry x="40" y="1098" width="80" height="40" as="geometry"/>
                </mxCell>
                <mxCell id="164" value="Switch Pages" style="whiteSpace=wrap;html=1;strokeWidth=1;fillColor=#B3B3B3;" vertex="1" parent="1">
                    <mxGeometry x="160" y="1088" width="120" height="60" as="geometry"/>
                </mxCell>
                <mxCell id="165" value="Home" style="rhombus;whiteSpace=wrap;html=1;strokeWidth=1;fillColor=#B3B3B3;" vertex="1" parent="1">
                    <mxGeometry x="340" y="1078" width="80" height="80" as="geometry"/>
                </mxCell>
                <mxCell id="166" style="edgeStyle=orthogonalEdgeStyle;rounded=0;orthogonalLoop=1;jettySize=auto;html=1;exitX=0.5;exitY=1;exitDx=0;exitDy=0;exitPerimeter=0;fontColor=#FFFFFF;" edge="1" parent="1" source="167" target="193">
                    <mxGeometry relative="1" as="geometry"/>
                </mxCell>
                <mxCell id="167" value="Show Home Page" style="strokeWidth=1;html=1;shape=mxgraph.flowchart.display;whiteSpace=wrap;fillColor=#B3B3B3;" vertex="1" parent="1">
                    <mxGeometry x="325" y="1240" width="110" height="60" as="geometry"/>
                </mxCell>
                <mxCell id="168" value="Show Home Page" style="strokeWidth=1;html=1;shape=mxgraph.flowchart.display;whiteSpace=wrap;fillColor=#B3B3B3;" vertex="1" parent="1">
                    <mxGeometry x="465" y="1240" width="110" height="60" as="geometry"/>
                </mxCell>
                <mxCell id="169" value="Course" style="rhombus;whiteSpace=wrap;html=1;strokeWidth=1;fillColor=#B3B3B3;" vertex="1" parent="1">
                    <mxGeometry x="480" y="1078" width="80" height="80" as="geometry"/>
                </mxCell>
                <mxCell id="170" value="Games" style="rhombus;whiteSpace=wrap;html=1;strokeWidth=1;fillColor=#B3B3B3;" vertex="1" parent="1">
                    <mxGeometry x="620" y="1078" width="80" height="80" as="geometry"/>
                </mxCell>
                <mxCell id="171" value="Show Home Page" style="strokeWidth=1;html=1;shape=mxgraph.flowchart.display;whiteSpace=wrap;fillColor=#B3B3B3;" vertex="1" parent="1">
                    <mxGeometry x="745" y="1240" width="110" height="60" as="geometry"/>
                </mxCell>
                <mxCell id="172" value="Tutorial" style="rhombus;whiteSpace=wrap;html=1;strokeWidth=1;fillColor=#B3B3B3;" vertex="1" parent="1">
                    <mxGeometry x="760" y="1078" width="80" height="80" as="geometry"/>
                </mxCell>
                <mxCell id="173" value="Forum" style="rhombus;whiteSpace=wrap;html=1;strokeWidth=1;fillColor=#B3B3B3;" vertex="1" parent="1">
                    <mxGeometry x="900" y="1078" width="80" height="80" as="geometry"/>
                </mxCell>
                <mxCell id="174" value="Show Home Page" style="strokeWidth=1;html=1;shape=mxgraph.flowchart.display;whiteSpace=wrap;fillColor=#B3B3B3;" vertex="1" parent="1">
                    <mxGeometry x="885" y="1240" width="110" height="60" as="geometry"/>
                </mxCell>
                <mxCell id="175" style="edgeStyle=orthogonalEdgeStyle;rounded=0;orthogonalLoop=1;jettySize=auto;html=1;entryX=0.5;entryY=0;entryDx=0;entryDy=0;fontColor=#FFFFFF;" edge="1" parent="1" source="176" target="190">
                    <mxGeometry relative="1" as="geometry"/>
                </mxCell>
                <mxCell id="176" value="Show Home Page" style="strokeWidth=1;html=1;shape=mxgraph.flowchart.display;whiteSpace=wrap;fillColor=#B3B3B3;" vertex="1" parent="1">
                    <mxGeometry x="1015" y="1240" width="110" height="60" as="geometry"/>
                </mxCell>
                <mxCell id="177" value="Yes" style="text;html=1;align=center;verticalAlign=middle;resizable=0;points=[];autosize=1;strokeColor=none;fillColor=none;" vertex="1" parent="1">
                    <mxGeometry x="385" y="1170" width="40" height="20" as="geometry"/>
                </mxCell>
                <mxCell id="178" value="Yes" style="text;html=1;align=center;verticalAlign=middle;resizable=0;points=[];autosize=1;strokeColor=none;fillColor=none;" vertex="1" parent="1">
                    <mxGeometry x="530" y="1170" width="40" height="20" as="geometry"/>
                </mxCell>
                <mxCell id="179" value="Yes" style="text;html=1;align=center;verticalAlign=middle;resizable=0;points=[];autosize=1;strokeColor=none;fillColor=none;" vertex="1" parent="1">
                    <mxGeometry x="680" y="1170" width="40" height="20" as="geometry"/>
                </mxCell>
                <mxCell id="180" value="Yes" style="text;html=1;align=center;verticalAlign=middle;resizable=0;points=[];autosize=1;strokeColor=none;fillColor=none;" vertex="1" parent="1">
                    <mxGeometry x="815" y="1170" width="40" height="20" as="geometry"/>
                </mxCell>
                <mxCell id="181" value="Yes" style="text;html=1;align=center;verticalAlign=middle;resizable=0;points=[];autosize=1;strokeColor=none;fillColor=none;" vertex="1" parent="1">
                    <mxGeometry x="955" y="1170" width="40" height="20" as="geometry"/>
                </mxCell>
                <mxCell id="182" value="Yes" style="text;html=1;align=center;verticalAlign=middle;resizable=0;points=[];autosize=1;strokeColor=none;fillColor=none;" vertex="1" parent="1">
                    <mxGeometry x="1085" y="1170" width="40" height="20" as="geometry"/>
                </mxCell>
                <mxCell id="183" value="Yes" style="text;html=1;align=center;verticalAlign=middle;resizable=0;points=[];autosize=1;strokeColor=none;fillColor=none;" vertex="1" parent="1">
                    <mxGeometry x="1250" y="1098" width="40" height="20" as="geometry"/>
                </mxCell>
                <mxCell id="184" value="No" style="text;html=1;align=center;verticalAlign=middle;resizable=0;points=[];autosize=1;strokeColor=none;fillColor=none;" vertex="1" parent="1">
                    <mxGeometry x="435" y="1088" width="30" height="20" as="geometry"/>
                </mxCell>
                <mxCell id="185" value="No" style="text;html=1;align=center;verticalAlign=middle;resizable=0;points=[];autosize=1;strokeColor=none;fillColor=none;" vertex="1" parent="1">
                    <mxGeometry x="580" y="1088" width="30" height="20" as="geometry"/>
                </mxCell>
                <mxCell id="186" value="No" style="text;html=1;align=center;verticalAlign=middle;resizable=0;points=[];autosize=1;strokeColor=none;fillColor=none;" vertex="1" parent="1">
                    <mxGeometry x="715" y="1088" width="30" height="20" as="geometry"/>
                </mxCell>
                <mxCell id="187" value="No" style="text;html=1;align=center;verticalAlign=middle;resizable=0;points=[];autosize=1;strokeColor=none;fillColor=none;" vertex="1" parent="1">
                    <mxGeometry x="855" y="1088" width="30" height="20" as="geometry"/>
                </mxCell>
                <mxCell id="188" value="No" style="text;html=1;align=center;verticalAlign=middle;resizable=0;points=[];autosize=1;strokeColor=none;fillColor=none;" vertex="1" parent="1">
                    <mxGeometry x="985" y="1088" width="30" height="20" as="geometry"/>
                </mxCell>
                <mxCell id="189" value="No" style="text;html=1;align=center;verticalAlign=middle;resizable=0;points=[];autosize=1;strokeColor=none;fillColor=none;" vertex="1" parent="1">
                    <mxGeometry x="1120" y="1088" width="30" height="20" as="geometry"/>
                </mxCell>
                <mxCell id="190" value="PF" style="ellipse;whiteSpace=wrap;html=1;rounded=1;shadow=0;strokeColor=#82b366;strokeWidth=1;fillColor=#d5e8d4;glass=0;" vertex="1" parent="1">
                    <mxGeometry x="1050" y="1340" width="40" height="40" as="geometry"/>
                </mxCell>
                <mxCell id="191" style="edgeStyle=orthogonalEdgeStyle;rounded=0;orthogonalLoop=1;jettySize=auto;html=1;entryX=0;entryY=0.5;entryDx=0;entryDy=0;entryPerimeter=0;fontColor=#FFFFFF;" edge="1" parent="1" source="192" target="195">
                    <mxGeometry relative="1" as="geometry"/>
                </mxCell>
                <mxCell id="192" value="HME" style="strokeWidth=2;html=1;shape=mxgraph.flowchart.start_2;whiteSpace=wrap;fillColor=#e1d5e7;strokeColor=#9673a6;" vertex="1" parent="1">
                    <mxGeometry x="1177.5" y="586" width="40" height="40" as="geometry"/>
                </mxCell>
                <mxCell id="193" value="HME" style="strokeWidth=2;html=1;shape=mxgraph.flowchart.start_2;whiteSpace=wrap;fillColor=#e1d5e7;strokeColor=#9673a6;" vertex="1" parent="1">
                    <mxGeometry x="360" y="1340" width="40" height="40" as="geometry"/>
                </mxCell>
                <mxCell id="194" value="" style="edgeStyle=orthogonalEdgeStyle;rounded=0;orthogonalLoop=1;jettySize=auto;html=1;fontColor=#000000;" edge="1" parent="1" source="195" target="198">
                    <mxGeometry relative="1" as="geometry"/>
                </mxCell>
                <mxCell id="195" value="&lt;font color=&quot;#000000&quot;&gt;Display Home Page&lt;/font&gt;" style="strokeWidth=1;html=1;shape=mxgraph.flowchart.display;whiteSpace=wrap;fontColor=#FFFFFF;fillColor=#FFFFFF;" vertex="1" parent="1">
                    <mxGeometry x="1257.5" y="572" width="100" height="68" as="geometry"/>
                </mxCell>
                <mxCell id="196" value="" style="edgeStyle=orthogonalEdgeStyle;rounded=0;orthogonalLoop=1;jettySize=auto;html=1;fontColor=#000000;" edge="1" parent="1" source="198" target="201">
                    <mxGeometry relative="1" as="geometry"/>
                </mxCell>
                <mxCell id="197" value="" style="edgeStyle=orthogonalEdgeStyle;rounded=0;orthogonalLoop=1;jettySize=auto;html=1;fontColor=#000000;" edge="1" parent="1" source="198" target="205">
                    <mxGeometry relative="1" as="geometry"/>
                </mxCell>
                <mxCell id="198" value="&lt;font color=&quot;#000000&quot;&gt;Browse Home page&lt;/font&gt;" style="whiteSpace=wrap;html=1;fontColor=#FFFFFF;strokeWidth=1;fillColor=#FFFFFF;" vertex="1" parent="1">
                    <mxGeometry x="1397.5" y="576" width="100" height="60" as="geometry"/>
                </mxCell>
                <mxCell id="199" value="" style="edgeStyle=orthogonalEdgeStyle;rounded=0;orthogonalLoop=1;jettySize=auto;html=1;fontColor=#000000;" edge="1" parent="1" source="201" target="202">
                    <mxGeometry relative="1" as="geometry"/>
                </mxCell>
                <mxCell id="200" style="edgeStyle=orthogonalEdgeStyle;rounded=0;orthogonalLoop=1;jettySize=auto;html=1;entryX=0.556;entryY=1.013;entryDx=0;entryDy=0;entryPerimeter=0;fontColor=#000000;" edge="1" parent="1" source="201" target="195">
                    <mxGeometry relative="1" as="geometry">
                        <Array as="points">
                            <mxPoint x="1313.5" y="761"/>
                        </Array>
                    </mxGeometry>
                </mxCell>
                <mxCell id="201" value="&lt;font color=&quot;#000000&quot;&gt;Does user wants to enroll &lt;br&gt;to course?&lt;/font&gt;" style="rhombus;whiteSpace=wrap;html=1;fontColor=#FFFFFF;strokeWidth=1;fillColor=#FFFFFF;" vertex="1" parent="1">
                    <mxGeometry x="1338.75" y="718" width="217.5" height="90" as="geometry"/>
                </mxCell>
                <mxCell id="202" value="&lt;font color=&quot;#000000&quot;&gt;Open Course Page&lt;/font&gt;" style="whiteSpace=wrap;html=1;fontColor=#FFFFFF;strokeWidth=1;fillColor=#FFFFFF;" vertex="1" parent="1">
                    <mxGeometry x="1387.5" y="908" width="120" height="60" as="geometry"/>
                </mxCell>
                <mxCell id="203" value="&lt;span style=&quot;color: rgb(0 , 0 , 0) ; font-family: &amp;#34;helvetica&amp;#34; ; font-size: 11px ; font-style: normal ; font-weight: 400 ; letter-spacing: normal ; text-align: center ; text-indent: 0px ; text-transform: none ; word-spacing: 0px ; background-color: rgb(248 , 249 , 250) ; display: inline ; float: none&quot;&gt;Yes&lt;/span&gt;" style="text;whiteSpace=wrap;html=1;strokeColor=#FFFFFF;" vertex="1" parent="1">
                    <mxGeometry x="1457.5" y="816" width="40" height="30" as="geometry"/>
                </mxCell>
                <mxCell id="204" value="&lt;span style=&quot;color: rgb(0 , 0 , 0) ; font-family: &amp;#34;helvetica&amp;#34; ; font-size: 11px ; font-style: normal ; font-weight: 400 ; letter-spacing: normal ; text-align: center ; text-indent: 0px ; text-transform: none ; word-spacing: 0px ; background-color: rgb(248 , 249 , 250) ; display: inline ; float: none&quot;&gt;No&lt;/span&gt;" style="text;whiteSpace=wrap;html=1;strokeColor=none;" vertex="1" parent="1">
                    <mxGeometry x="1317.5" y="728" width="40" height="30" as="geometry"/>
                </mxCell>
                <mxCell id="205" value="&lt;br&gt;&lt;span style=&quot;color: rgb(0 , 0 , 0) ; font-family: &amp;#34;helvetica&amp;#34; ; font-size: 12px ; font-style: normal ; font-weight: 400 ; letter-spacing: normal ; text-align: center ; text-indent: 0px ; text-transform: none ; word-spacing: 0px ; background-color: rgb(248 , 249 , 250) ; display: inline ; float: none&quot;&gt;Does user wants to ask&lt;br&gt;&lt;/span&gt;&lt;span style=&quot;color: rgb(0 , 0 , 0) ; font-family: &amp;#34;helvetica&amp;#34; ; font-size: 12px ; font-style: normal ; font-weight: 400 ; letter-spacing: normal ; text-align: center ; text-indent: 0px ; text-transform: none ; word-spacing: 0px ; background-color: rgb(248 , 249 , 250) ; display: inline ; float: none&quot;&gt;question/s?&lt;/span&gt;" style="rhombus;whiteSpace=wrap;html=1;fontColor=#FFFFFF;strokeWidth=1;fillColor=#FFFFFF;" vertex="1" parent="1">
                    <mxGeometry x="1587.5" y="566" width="212.5" height="80" as="geometry"/>
                </mxCell>
            </root>
        </mxGraphModel>
    </diagram>
</mxfile>